<svg width="14" height="15" viewBox="0 0 14 15" fill="none" xmlns="http://www.w3.org/2000/svg">
<path d="M10.8375 3.4125C10.6892 3.4125 10.5442 3.45649 10.4208 3.5389C10.2975 3.62131 10.2014 3.73844 10.1446 3.87549C10.0878 4.01253 10.073 4.16333 10.1019 4.30882C10.1308 4.4543 10.2023 4.58794 10.3072 4.69283C10.4121 4.79772 10.5457 4.86915 10.6912 4.89809C10.8367 4.92703 10.9875 4.91218 11.1245 4.85541C11.2616 4.79864 11.3787 4.70251 11.4611 4.57918C11.5435 4.45584 11.5875 4.31084 11.5875 4.1625C11.5875 3.96359 11.5085 3.77282 11.3678 3.63217C11.2272 3.49152 11.0364 3.4125 10.8375 3.4125ZM13.7125 4.925C13.7003 4.40644 13.6032 3.89338 13.425 3.40625C13.2661 2.98946 13.0187 2.61205 12.7 2.3C12.3905 1.97964 12.0122 1.73386 11.5937 1.58125C11.1079 1.3976 10.5943 1.29826 10.075 1.2875C9.4125 1.25 9.2 1.25 7.5 1.25C5.8 1.25 5.5875 1.25 4.925 1.2875C4.40572 1.29826 3.89209 1.3976 3.40625 1.58125C2.98855 1.73541 2.61058 1.98098 2.3 2.3C1.97964 2.60949 1.73386 2.98777 1.58125 3.40625C1.3976 3.89209 1.29826 4.40572 1.2875 4.925C1.25 5.5875 1.25 5.8 1.25 7.5C1.25 9.2 1.25 9.4125 1.2875 10.075C1.29826 10.5943 1.3976 11.1079 1.58125 11.5937C1.73386 12.0122 1.97964 12.3905 2.3 12.7C2.61058 13.019 2.98855 13.2646 3.40625 13.4187C3.89209 13.6024 4.40572 13.7017 4.925 13.7125C5.5875 13.75 5.8 13.75 7.5 13.75C9.2 13.75 9.4125 13.75 10.075 13.7125C10.5943 13.7017 11.1079 13.6024 11.5937 13.4187C12.0122 13.2661 12.3905 13.0204 12.7 12.7C13.0202 12.3891 13.2677 12.0114 13.425 11.5937C13.6032 11.1066 13.7003 10.5936 13.7125 10.075C13.7125 9.4125 13.75 9.2 13.75 7.5C13.75 5.8 13.75 5.5875 13.7125 4.925ZM12.5875 10C12.5829 10.3967 12.5111 10.7898 12.375 11.1625C12.2752 11.4345 12.1149 11.6803 11.9062 11.8813C11.7035 12.0878 11.4583 12.2478 11.1875 12.35C10.8148 12.4861 10.4217 12.5579 10.025 12.5625C9.4 12.5938 9.16875 12.6 7.525 12.6C5.88125 12.6 5.65 12.6 5.025 12.5625C4.61306 12.5702 4.20287 12.5068 3.8125 12.375C3.55361 12.2675 3.3196 12.108 3.125 11.9062C2.91756 11.7055 2.75928 11.4595 2.6625 11.1875C2.50991 10.8095 2.42528 10.4075 2.4125 10C2.4125 9.375 2.375 9.14375 2.375 7.5C2.375 5.85625 2.375 5.625 2.4125 5C2.4153 4.59441 2.48934 4.19247 2.63125 3.8125C2.74128 3.54869 2.91017 3.31354 3.125 3.125C3.31488 2.91011 3.54955 2.73943 3.8125 2.625C4.19347 2.48753 4.595 2.41567 5 2.4125C5.625 2.4125 5.85625 2.375 7.5 2.375C9.14375 2.375 9.375 2.375 10 2.4125C10.3967 2.41705 10.7898 2.4889 11.1625 2.625C11.4465 2.73041 11.7014 2.90178 11.9062 3.125C12.1111 3.31699 12.2711 3.55171 12.375 3.8125C12.5139 4.19308 12.5858 4.59486 12.5875 5C12.6187 5.625 12.625 5.85625 12.625 7.5C12.625 9.14375 12.6187 9.375 12.5875 10ZM7.5 4.29375C6.86613 4.29499 6.24685 4.48408 5.72041 4.83714C5.19397 5.19019 4.78399 5.69137 4.54227 6.27735C4.30056 6.86332 4.23795 7.50779 4.36237 8.12933C4.48679 8.75087 4.79265 9.32158 5.2413 9.76936C5.68995 10.2171 6.26126 10.5219 6.88304 10.6451C7.50482 10.7683 8.14917 10.7044 8.73467 10.4616C9.32017 10.2187 9.82055 9.80777 10.1726 9.28065C10.5246 8.75352 10.7125 8.13387 10.7125 7.5C10.7133 7.07819 10.6308 6.66038 10.4695 6.2706C10.3083 5.88082 10.0716 5.52676 9.77304 5.22878C9.47449 4.93081 9.11997 4.6948 8.72987 4.53433C8.33978 4.37386 7.92181 4.2921 7.5 4.29375ZM7.5 9.58125C7.08837 9.58125 6.68598 9.45919 6.34372 9.2305C6.00146 9.00181 5.7347 8.67676 5.57718 8.29646C5.41965 7.91616 5.37844 7.49769 5.45874 7.09397C5.53905 6.69025 5.73727 6.3194 6.02833 6.02833C6.3194 5.73727 6.69025 5.53905 7.09397 5.45874C7.49769 5.37844 7.91616 5.41965 8.29646 5.57718C8.67676 5.7347 9.00181 6.00146 9.2305 6.34372C9.45919 6.68598 9.58125 7.08837 9.58125 7.5C9.58125 7.77331 9.52742 8.04395 9.42282 8.29646C9.31823 8.54897 9.16493 8.7784 8.97167 8.97167C8.7784 9.16493 8.54897 9.31823 8.29646 9.42282C8.04395 9.52742 7.77331 9.58125 7.5 9.58125Z" fill="white"/>
</svg>
