<svg width="15" height="15" viewBox="0 0 15 15" fill="none" xmlns="http://www.w3.org/2000/svg">
<g clip-path="url(#clip0_1_15)">
<path d="M0 1.74256C0 1.2375 0.168924 0.820833 0.506757 0.492561C0.84459 0.164273 1.28379 0.000137329 1.82432 0.000137329C2.35522 0.000137329 2.78474 0.161743 3.11293 0.484985C3.45077 0.818318 3.61969 1.25265 3.61969 1.78801C3.61969 2.27286 3.4556 2.67689 3.12741 3.00013C2.78958 3.33347 2.34556 3.50013 1.79537 3.50013H1.78089C1.25 3.50013 0.820468 3.33347 0.492278 3.00013C0.164088 2.6668 0 2.2476 0 1.74256ZM0.188224 15.0001V4.87892H3.40251V15.0001H0.188224ZM5.1834 15.0001H8.39768V9.34861C8.39768 8.99506 8.4363 8.72233 8.51351 8.53043C8.64864 8.18699 8.85376 7.89658 9.12886 7.65922C9.40396 7.42184 9.74903 7.30316 10.1641 7.30316C11.2452 7.30316 11.7857 8.06578 11.7857 9.59103V15.0001H15V9.19709C15 7.70214 14.6622 6.56831 13.9865 5.79558C13.3108 5.02286 12.418 4.63649 11.3079 4.63649C10.0627 4.63649 9.09266 5.1971 8.39768 6.31831V6.34861H8.3832L8.39768 6.31831V4.87892H5.1834C5.2027 5.20214 5.21236 6.20719 5.21236 7.89406C5.21236 9.58092 5.2027 11.9496 5.1834 15.0001Z" fill="white"/>
</g>
<defs>
<clipPath id="clip0_1_15">
<rect width="15" height="15" fill="white"/>
</clipPath>
</defs>
</svg>
